<svg fill="#0091ff" height="200px" width="200px" version="1.1" id="Layer_1" xmlns="http://www.w3.org/2000/svg" xmlns:xlink="http://www.w3.org/1999/xlink" viewBox="0 0 512.011 512.011" xml:space="preserve" stroke="#0091ff"><g id="SVGRepo_bgCarrier" stroke-width="0"></g><g id="SVGRepo_tracerCarrier" stroke-linecap="round" stroke-linejoin="round"></g><g id="SVGRepo_iconCarrier"> <g> <g> <path d="M505.755,6.259c-8.341-8.341-21.824-8.341-30.165,0l-41.92,41.92l-204.16,29.163c-4.565,0.661-8.789,2.773-12.075,6.037 L6.256,294.579c-8.341,8.32-8.341,21.824,0,30.165l181.013,181.013c4.181,4.16,9.621,6.251,15.083,6.251 c5.461,0,10.923-2.091,15.083-6.251l211.2-211.179c3.264-3.285,5.376-7.509,6.037-12.075l29.163-204.16l41.92-41.92 C514.096,28.083,514.096,14.6,505.755,6.259z M320.005,234.675c-23.573,0-42.667-19.093-42.667-42.667 s19.093-42.667,42.667-42.667c23.573,0,42.667,19.093,42.667,42.667S343.579,234.675,320.005,234.675z"></path> </g> </g> </g></svg>